<svg width="32" height="36" viewBox="0 0 32 36" fill="none" xmlns="http://www.w3.org/2000/svg">
<path d="M23 5.55556C23 3.59188 24.567 2 26.5 2C28.433 2 30 3.59188 30 5.55556C30 7.51923 28.433 9.11111 26.5 9.11111C25.2102 9.11111 24.0834 8.40239 23.4763 7.34739C23.1735 6.82125 23 6.20899 23 5.55556Z" fill="#F30A49"/>
<path d="M23 30.4444C23 29.791 23.1735 29.1788 23.4763 28.6526C24.0834 27.5976 25.2102 26.8889 26.5 26.8889C28.433 26.8889 30 28.4808 30 30.4444C30 32.4081 28.433 34 26.5 34C24.567 34 23 32.4081 23 30.4444Z" fill="#F30A49"/>
<path d="M2 18C2 16.0363 3.567 14.4444 5.5 14.4444C6.78977 14.4444 7.91661 15.1532 8.52372 16.2082C8.82649 16.7343 9 17.3466 9 18C9 18.6534 8.82649 19.2657 8.52372 19.7918C7.91661 20.8468 6.78977 21.5556 5.5 21.5556C3.567 21.5556 2 19.9637 2 18Z" fill="#F30A49"/>
<path d="M23.4763 7.34739C24.0834 8.40239 25.2102 9.11111 26.5 9.11111C28.433 9.11111 30 7.51923 30 5.55556C30 3.59188 28.433 2 26.5 2C24.567 2 23 3.59188 23 5.55556C23 6.20899 23.1735 6.82125 23.4763 7.34739ZM23.4763 7.34739L8.52372 16.2082M8.52372 16.2082C7.91661 15.1532 6.78978 14.4444 5.5 14.4444C3.567 14.4444 2 16.0363 2 18C2 19.9637 3.567 21.5556 5.5 21.5556C6.78978 21.5556 7.91661 20.8468 8.52372 19.7918M8.52372 16.2082C8.82649 16.7343 9 17.3466 9 18C9 18.6534 8.82649 19.2657 8.52372 19.7918M8.52372 19.7918L23.4763 28.6526M23.4763 28.6526C24.0834 27.5976 25.2102 26.8889 26.5 26.8889C28.433 26.8889 30 28.4808 30 30.4444C30 32.4081 28.433 34 26.5 34C24.567 34 23 32.4081 23 30.4444C23 29.791 23.1735 29.1788 23.4763 28.6526Z" stroke="#F30A49" stroke-width="3" stroke-linecap="round" stroke-linejoin="round"/>
</svg>
