<svg width="17" height="19" viewBox="0 0 17 19" fill="none" xmlns="http://www.w3.org/2000/svg">
<path d="M15.5714 7.95455C15.5714 13.3636 8.28571 18 8.28571 18C8.28571 18 1 13.3636 1 7.95455C1 6.11009 1.7676 4.34117 3.13394 3.03694C4.50027 1.73271 6.35342 1 8.28571 1C10.218 1 12.0712 1.73271 13.4375 3.03694C14.8038 4.34117 15.5714 6.11009 15.5714 7.95455Z" stroke="#4A4A4A" stroke-width="1.5" stroke-linecap="round" stroke-linejoin="round"/>
<path d="M8.28575 10.7145C9.62701 10.7145 10.7143 9.35536 10.7143 7.67878C10.7143 6.0022 9.62701 4.64307 8.28575 4.64307C6.94449 4.64307 5.85718 6.0022 5.85718 7.67878C5.85718 9.35536 6.94449 10.7145 8.28575 10.7145Z" stroke="#4A4A4A" stroke-width="1.5" stroke-linecap="round" stroke-linejoin="round"/>
</svg>
